<svg width="27" height="26" viewBox="0 0 27 26" fill="none" xmlns="http://www.w3.org/2000/svg">
    <rect width="27" height="25.3883" rx="6" transform="matrix(-1 0 0 1 27 0)" fill="white" fill-opacity="0.1"/>
    <path fill-rule="evenodd" clip-rule="evenodd" d="M16.2935 19.1251C15.931 19.2982 15.5344 19.3881 15.1328 19.3883H9.36584C8.72276 19.3883 8.10085 19.1585 7.61229 18.7404C7.12372 18.3222 6.80065 17.7432 6.70136 17.1079L6.02607 12.7897C5.97777 12.4818 5.99673 12.1672 6.08165 11.8674C6.16657 11.5675 6.31543 11.2897 6.51799 11.0529C6.72056 10.8161 6.97201 10.626 7.25506 10.4956C7.53811 10.3653 7.84604 10.2978 8.15765 10.2978H11.6991V7.75524C11.6986 7.36697 11.827 6.98952 12.0642 6.68212C12.3014 6.37471 12.634 6.15475 13.0097 6.05675C13.3854 5.95876 13.783 5.98827 14.1401 6.14065C14.4972 6.29304 14.7936 6.55968 14.9828 6.89873L17.2233 10.9008C17.3585 11.1424 17.4295 11.4147 17.4294 11.6915V17.562C17.4294 17.8676 17.3429 18.167 17.1799 18.4255C17.0169 18.684 16.784 18.891 16.5081 19.0226L16.2924 19.1251H16.2935ZM19.9245 11.0993C20.0657 11.0992 20.2055 11.1269 20.336 11.1808C20.4665 11.2347 20.585 11.3138 20.6849 11.4136C20.7848 11.5134 20.864 11.6319 20.9181 11.7623C20.9722 11.8928 21 12.0326 21 12.1737V17.6882C21 17.9735 20.8867 18.247 20.685 18.4487C20.4833 18.6504 20.2097 18.7637 19.9245 18.7637H19.3894C19.2464 18.7637 19.1092 18.7069 19.0081 18.6058C18.9069 18.5046 18.8501 18.3674 18.8501 18.2244V11.6376C18.8501 11.4946 18.9069 11.3574 19.0081 11.2562C19.1092 11.1551 19.2464 11.0982 19.3894 11.0982H19.9245V11.0993Z" fill="white"/>
</svg>
