<svg xmlns="http://www.w3.org/2000/svg" width="20" height="21" viewBox="0 0 20 21" fill="none">
    <path d="M8.43708 20.4378C7.45932 20.2694 6.51282 19.9954 5.62725 19.5433C2.72094 18.0591 0.866599 15.7308 0.218928 12.5291C-0.405305 9.44302 0.309946 6.63248 2.30608 4.19436C3.91862 2.2244 6.01398 1.03953 8.54021 0.670629C12.8841 0.0367724 17.0463 2.22479 18.9803 6.14947C19.7729 7.75795 20.0983 9.46217 19.9744 11.2555C19.6877 15.4084 16.8224 18.988 12.8485 20.1467C12.4301 20.2686 12.0051 20.3585 11.5774 20.4378C11.575 20.4183 11.5707 20.3991 11.5707 20.3796C11.57 18.1138 11.5707 15.8484 11.5657 13.5826C11.5657 13.44 11.6344 13.4466 11.7321 13.4466C12.37 13.4486 13.0075 13.4478 13.6454 13.4478C13.9188 13.4478 13.9102 13.4466 13.9509 13.1672C14.0688 12.3595 14.188 11.5513 14.3231 10.7463C14.3517 10.5755 14.3103 10.5529 14.1579 10.554C13.3509 10.5603 12.5438 10.5568 11.7368 10.5572C11.6465 10.5572 11.5629 10.5783 11.5649 10.427C11.5739 9.82169 11.5563 9.21597 11.5719 8.61064C11.5942 7.7556 12.0501 7.26204 12.8876 7.14988C13.361 7.08657 13.836 7.12956 14.3106 7.12253C14.4325 7.12057 14.4622 7.08775 14.461 6.96895C14.4556 6.24638 14.4556 5.52343 14.461 4.80086C14.4618 4.68519 14.4251 4.63673 14.3149 4.62344C13.3927 4.51129 12.4696 4.38545 11.5387 4.50386C10.6742 4.61406 9.91524 4.94819 9.3328 5.61839C8.71209 6.33275 8.47107 7.18974 8.4488 8.11395C8.43044 8.86856 8.4406 9.62435 8.4488 10.3793C8.45036 10.5275 8.41052 10.5618 8.26598 10.5603C7.53706 10.5525 6.80814 10.5603 6.07922 10.5536C5.94835 10.5525 5.90187 10.5779 5.90304 10.7209C5.91007 11.5736 5.91007 12.4267 5.90304 13.2794C5.90187 13.4177 5.93937 13.4517 6.07531 13.4505C6.7847 13.4435 7.49409 13.4537 8.20348 13.4427C8.3902 13.44 8.45114 13.4732 8.45036 13.6795C8.44099 15.8019 8.44489 17.9243 8.44411 20.0466C8.44411 20.1768 8.43903 20.3069 8.4363 20.4366L8.43708 20.4378Z" fill="#0079FA"/>
</svg>
