<svg xmlns="http://www.w3.org/2000/svg" width="20" height="21" viewBox="0 0 20 21" fill="none">
    <path d="M13.0084 15.6387C13.788 15.1569 14.4503 14.5519 14.9587 13.7844C15.1713 13.4631 15.3421 13.1204 15.5023 12.771C15.5761 12.6104 15.5332 12.5775 15.3683 12.5779C13.754 12.5826 12.1393 12.5815 10.5246 12.5799C10.1838 12.5799 10.2303 12.624 10.2296 12.2755C10.2276 11.1296 10.2331 9.98376 10.2245 8.83792C10.2233 8.66206 10.2737 8.62376 10.4429 8.62415C13.5027 8.62923 16.5625 8.62806 19.6222 8.62688C19.7457 8.62688 19.8309 8.6218 19.8583 8.79532C20.3194 11.7076 19.6547 14.3338 17.8645 16.6728C17.4003 17.2789 16.8677 17.8226 16.2584 18.2872C16.1721 18.218 16.0853 18.15 15.9997 18.0801C15.0025 17.2664 14.0056 16.4524 13.0084 15.6383V15.6387Z" fill="#3B8FFE"/>
    <path d="M1.12842 5.91474C1.4766 5.18041 1.94006 4.52151 2.47777 3.91733C4.22141 1.95665 6.39959 0.808074 9.01075 0.552487C11.7009 0.289083 14.1194 1.0195 16.251 2.68941C16.3616 2.77617 16.371 2.81565 16.255 2.90983C15.2593 3.71684 14.2682 4.5305 13.278 5.34416C13.1971 5.4106 13.1381 5.44772 13.0264 5.38168C9.81849 3.4894 5.69268 4.96117 4.41054 8.47843C4.40155 8.50266 4.38671 8.52454 4.37498 8.5476C4.08229 8.31194 3.78882 8.07707 3.4973 7.84024C2.70754 7.19893 1.91818 6.55644 1.12881 5.91474H1.12842Z" fill="#FE2926"/>
    <path d="M13.0084 15.6387C14.0053 16.4527 15.0025 17.2668 15.9998 18.0804C16.0854 18.1504 16.1721 18.2184 16.2585 18.2876C15.4851 18.9367 14.6196 19.4311 13.6829 19.7973C9.74934 21.3355 5.37969 20.3018 2.54852 17.1632C2.02019 16.5774 1.5622 15.9392 1.2019 15.2342C2.27771 14.3545 3.35351 13.4748 4.42971 12.5951C4.77828 13.4556 5.26792 14.222 5.95686 14.8512C7.90371 16.6302 10.6309 16.9487 12.9373 15.6692C12.96 15.6567 12.9846 15.6485 13.0084 15.6383V15.6387Z" fill="#00B532"/>
    <path d="M4.42975 12.5951C3.35394 13.4748 2.27814 14.3545 1.20194 15.2342C0.64743 14.2447 0.300031 13.1825 0.125354 12.0667C-0.144281 10.346 0.0206262 8.66282 0.624375 7.02652C0.765445 6.64431 0.91433 6.26444 1.12887 5.91467C1.91823 6.55638 2.7076 7.19886 3.49736 7.84018C3.78888 8.077 4.08235 8.31188 4.37504 8.54753C4.17926 9.19627 4.05656 9.854 4.06046 10.5371C4.06476 11.2472 4.20583 11.9272 4.43014 12.5951H4.42975Z" fill="#FEB700"/>
</svg>
