<svg xmlns="http://www.w3.org/2000/svg" width="24" height="24" viewBox="0 0 24 24" fill="none">
    <path d="M11.9944 24C5.37449 23.9991 -0.00093767 18.6183 1.22686e-07 11.9944C0.000937916 5.36439 5.38575 -0.00515435 12.0291 3.71307e-06C18.6405 0.00516178 24.0052 5.39581 24 12.0291C23.9948 18.6305 18.6086 24.0014 11.9944 24.0005V24ZM13.274 10.4896C13.274 10.1154 13.2684 9.79938 13.2768 9.4838C13.2806 9.34079 13.2534 9.27795 13.0878 9.27983C12.2602 9.28874 11.4322 9.2878 10.6041 9.2803C10.4494 9.27889 10.4053 9.3239 10.409 9.47724C10.4245 10.0939 10.4358 10.711 10.4344 11.328C10.4301 13.4447 10.4217 15.5609 10.4072 17.6776C10.4057 17.8586 10.4475 17.9144 10.636 17.9121C11.4326 17.9008 12.2293 17.8985 13.0255 17.913C13.2388 17.9168 13.2791 17.8535 13.2777 17.6537C13.2688 16.1696 13.2745 14.6859 13.2726 13.2018C13.2721 12.6363 13.394 12.1271 13.8362 11.7243C14.4495 11.1658 15.6921 11.1639 16.1042 12.1426C16.2698 12.5364 16.3087 12.9575 16.3096 13.38C16.3124 14.8172 16.3138 16.254 16.3068 17.6912C16.3059 17.8638 16.3457 17.914 16.5239 17.9116C17.336 17.9013 18.1486 17.9008 18.9608 17.9116C19.1436 17.914 19.1755 17.8563 19.1751 17.6879C19.1685 16.134 19.1713 14.5795 19.1708 13.025C19.1708 12.6499 19.1408 12.2771 19.078 11.9072C18.8304 10.4441 17.9508 9.30046 16.342 9.11805C15.4694 9.01911 14.6502 9.15416 13.9469 9.73936C13.7012 9.94381 13.5202 10.2031 13.274 10.4887V10.4896ZM8.81854 13.6173C8.81854 12.2588 8.81525 10.9004 8.82229 9.54242C8.82322 9.35157 8.79743 9.27279 8.57424 9.27748C7.77852 9.29389 6.98187 9.28967 6.18568 9.27936C6.00094 9.27701 5.95311 9.32719 5.95358 9.51194C5.95967 12.2363 5.9592 14.9612 5.95452 17.6856C5.95452 17.8511 5.98171 17.9144 6.16739 17.9121C6.97905 17.9008 7.79118 17.9018 8.60284 17.9116C8.77727 17.9135 8.82369 17.8689 8.82276 17.6931C8.81478 16.3347 8.81854 14.9762 8.81854 13.6182V13.6173ZM5.80259 6.61452C5.7979 7.47497 6.45577 8.09957 7.37527 8.10754C8.31213 8.11551 8.99953 7.49795 9.00281 6.64453C9.00609 5.75828 8.3759 5.15103 7.43107 5.12946C6.49656 5.10789 5.80822 5.73624 5.80306 6.61452H5.80259Z" fill="#007CBD"/>
</svg>
