<svg xmlns="http://www.w3.org/2000/svg" width="61" height="60" viewBox="0 0 61 60" fill="none">
    <path fill-rule="evenodd" clip-rule="evenodd" d="M0.383942 42.7143V8.64478H50.092V32.483L38.9055 45.07L36.6233 43.3583C35.1222 42.2311 33.2951 41.623 31.4179 41.6261C29.5407 41.6292 27.7155 42.2432 26.2182 43.3754C24.7208 44.5075 23.6327 46.0963 23.1182 47.9016C22.6037 49.7069 22.6908 51.6306 23.3664 53.3821C10.5157 52.9671 0.383942 48.3464 0.383942 42.7143Z" fill="#8FBFFA"/>
    <path fill-rule="evenodd" clip-rule="evenodd" d="M0.383942 30.7542V23.6005C0.578452 23.9593 0.902635 24.3786 1.42565 24.8627C2.50194 25.8352 4.20498 26.8423 6.5391 27.7371C11.1944 29.5223 17.8034 30.6893 25.238 30.6893C32.6726 30.6893 39.2859 29.5223 43.9369 27.7328C46.271 26.838 47.974 25.8309 49.0503 24.8583C49.5776 24.3786 49.9018 23.955 50.092 23.5962V30.7542C48.7485 31.5492 47.3384 32.2261 45.8776 32.7771C40.4616 34.8605 33.1653 36.0924 25.238 36.0924C17.3106 36.0924 10.0143 34.8605 4.59832 32.7771C3.13759 32.2261 1.72749 31.5492 0.383942 30.7542Z" fill="#2859C5"/>
    <path fill-rule="evenodd" clip-rule="evenodd" d="M59.5236 34.8821C59.8427 35.1648 60.103 35.5077 60.2894 35.8911C60.4759 36.2745 60.5849 36.691 60.6102 37.1166C60.6355 37.5421 60.5766 37.9686 60.4369 38.3714C60.2971 38.7742 60.0793 39.1454 59.7959 39.4639L42.5061 58.9149C41.9656 59.5216 41.2169 59.9031 40.4084 59.9839C39.5999 60.0648 38.7905 59.8391 38.1405 59.3515L29.4956 52.8678C29.155 52.6124 28.8681 52.2924 28.6512 51.9261C28.4343 51.5597 28.2916 51.1543 28.2314 50.7328C28.1712 50.3114 28.1946 49.8822 28.3003 49.4698C28.4059 49.0574 28.5918 48.6698 28.8472 48.3293C29.1027 47.9887 29.4227 47.7018 29.789 47.4848C30.1553 47.2679 30.5608 47.1253 30.9822 47.0651C31.4037 47.0049 31.8328 47.0283 32.2452 47.134C32.6576 47.2396 33.0452 47.4255 33.3858 47.6809L39.6404 52.3751L54.9504 35.1545C55.5217 34.5131 56.3242 34.1247 57.1816 34.0744C58.039 34.0242 58.8813 34.3162 59.5236 34.8865V34.8821Z" fill="#2859C5"/>
    <path d="M25.238 17.2898C38.9661 17.2898 50.0921 13.4212 50.0921 8.64488C50.0921 3.86859 38.9661 0 25.238 0C11.51 0 0.384003 3.86859 0.384003 8.64488C0.384003 13.4212 11.51 17.2898 25.238 17.2898Z" fill="#2859C5"/>
</svg>
