<svg xmlns="http://www.w3.org/2000/svg" width="61" height="60" viewBox="0 0 61 60" fill="none">
    <path fill-rule="evenodd" clip-rule="evenodd" d="M22.0952 2.85624C24.7529 1.1935 27.7848 0.223252 30.9141 0.0341616C34.0433 -0.154929 37.17 0.443162 40.0085 1.77379C42.847 3.10441 45.3069 5.12514 47.1632 7.65134C49.0196 10.1775 50.2133 13.1287 50.6353 16.2351C53.655 17.1404 56.2763 19.0472 58.0675 21.6414C59.8587 24.2357 60.7128 27.3626 60.4893 30.5072C60.2657 33.6517 58.9778 36.6264 56.8377 38.9412C54.6976 41.2559 51.8329 42.7728 48.7154 43.2418C49.7077 41.8436 50.3837 40.2461 50.6963 38.5603C51.009 36.8745 50.9509 35.1408 50.5261 33.4798C50.1013 31.8187 49.3199 30.27 48.2362 28.9413C47.1526 27.6127 45.7927 26.5358 44.251 25.7857C42.7093 25.0355 41.0227 24.63 39.3085 24.5973C37.5942 24.5646 35.8934 24.9055 34.3242 25.5963C32.755 26.2872 31.355 27.3114 30.2215 28.5977C29.088 29.8841 28.2482 31.4019 27.7603 33.0456L26.0423 33.9045C24.4705 33.318 22.7918 33.073 21.118 33.1857C19.4441 33.2984 17.8134 33.7663 16.3344 34.5582C14.8554 35.3501 13.562 36.4479 12.5403 37.7785C11.5185 39.1092 10.7919 40.6421 10.4086 42.2754C7.13 40.9549 4.38655 38.5768 2.61397 35.5188C0.841399 32.4609 0.141334 28.8983 0.624958 25.397C1.10858 21.8956 2.74817 18.6563 5.28332 16.1933C7.81848 13.7303 11.1039 12.185 14.6177 11.8027C16.0956 8.1026 18.7131 4.96914 22.0909 2.85624H22.0952Z" fill="#8FBFFA"/>
    <path fill-rule="evenodd" clip-rule="evenodd" d="M32.6566 36.3827C32.6557 34.922 33.1512 33.5042 34.062 32.3621C34.9727 31.22 36.2446 30.4213 37.6689 30.097C39.0932 29.7728 40.5855 29.9422 41.9009 30.5775C43.2163 31.2128 44.2767 32.2763 44.9083 33.5935C45.5398 34.9107 45.7049 36.4034 45.3766 37.8268C45.0483 39.2502 44.2459 40.5198 43.1012 41.4273C41.9565 42.3347 40.5373 42.8262 39.0766 42.8211C37.6158 42.8161 36.2001 42.3147 35.0617 41.3993L28.3616 44.7493C28.3665 44.8953 28.3665 45.0414 28.3616 45.1874L35.0617 48.5375C36.2072 47.6162 37.6333 47.1142 39.1033 47.1151C40.5733 47.1159 41.9988 47.6195 43.1432 48.5421C44.2876 49.4648 45.082 50.751 45.3947 52.1874C45.7073 53.6238 45.5193 55.1239 44.8619 56.4387C44.2045 57.7535 43.1172 58.8039 41.7805 59.4157C40.4439 60.0274 38.9382 60.1636 37.5134 59.8017C36.0887 59.4397 34.8305 58.6014 33.9478 57.4259C33.0652 56.2504 32.611 54.8084 32.6609 53.3393L25.9607 49.9892C25.0139 50.7505 23.8711 51.2285 22.6643 51.3681C21.4575 51.5078 20.2358 51.3033 19.1401 50.7784C18.0445 50.2535 17.1196 49.4294 16.4723 48.4014C15.8249 47.3734 15.4814 46.1833 15.4814 44.9684C15.4814 43.7535 15.8249 42.5634 16.4723 41.5353C17.1196 40.5073 18.0445 39.6833 19.1401 39.1584C20.2358 38.6334 21.4575 38.429 22.6643 38.5686C23.8711 38.7083 25.0139 39.1863 25.9607 39.9476L32.6609 36.5975L32.6566 36.3827Z" fill="#2859C5"/>
</svg>
