<svg xmlns="http://www.w3.org/2000/svg" width="61" height="60" viewBox="0 0 61 60" fill="none">
    <path d="M14.9986 3.66092e-07H46.0014C47.1486 -0.000386734 48.275 0.306218 49.2638 0.888C50.2525 1.46978 51.0675 2.30555 51.6243 3.30857L60.5 19.2857H0.5L9.37571 3.30857C9.93249 2.30555 10.7475 1.46978 11.7362 0.888C12.725 0.306218 13.8514 -0.000386734 14.9986 3.66092e-07Z" fill="#2859C5"/>
    <path fill-rule="evenodd" clip-rule="evenodd" d="M33.1786 19.2857V0H27.8214V19.2857H0.5V53.5714C0.5 55.2764 1.17729 56.9115 2.38288 58.1171C3.58848 59.3227 5.22361 60 6.92857 60H54.0714C55.7764 60 57.4115 59.3227 58.6171 58.1171C59.8227 56.9115 60.5 55.2764 60.5 53.5714V19.2857H33.1786Z" fill="#8FBFFA"/>
    <path d="M28.9829 54.2015L19.16 44.3743C18.8599 44.0749 18.6552 43.6931 18.5721 43.2773C18.489 42.8616 18.531 42.4305 18.693 42.0386C18.855 41.6468 19.1296 41.3118 19.482 41.076C19.8344 40.8403 20.2489 40.7144 20.6729 40.7143H26.2143V32.1429C26.2143 31.0063 26.6659 29.9162 27.4696 29.1124C28.2733 28.3087 29.3634 27.8572 30.5 27.8572C31.6367 27.8572 32.7268 28.3087 33.5305 29.1124C34.3342 29.9162 34.7858 31.0063 34.7858 32.1429V40.7143H40.3272C40.7512 40.7144 41.1657 40.8403 41.5181 41.076C41.8705 41.3118 42.1451 41.6468 42.3071 42.0386C42.4691 42.4305 42.5111 42.8616 42.428 43.2773C42.3449 43.6931 42.1402 44.0749 41.84 44.3743L32.0172 54.2015C31.8181 54.401 31.5817 54.5593 31.3213 54.6674C31.061 54.7754 30.7819 54.831 30.5 54.831C30.2182 54.831 29.9391 54.7754 29.6788 54.6674C29.4184 54.5593 29.182 54.401 28.9829 54.2015Z" fill="#2859C5"/>
</svg>
