<svg xmlns="http://www.w3.org/2000/svg" width="61" height="60" viewBox="0 0 61 60" fill="none">
    <path fill-rule="evenodd" clip-rule="evenodd" d="M30.5 0C22.5435 0 14.9129 3.16071 9.2868 8.7868C3.66071 14.4129 0.5 22.0435 0.5 30C0.5 37.9565 3.66071 45.5871 9.2868 51.2132C14.9129 56.8393 22.5435 60 30.5 60C38.4565 60 46.0871 56.8393 51.7132 51.2132C57.3393 45.5871 60.5 37.9565 60.5 30C60.5 22.0435 57.3393 14.4129 51.7132 8.7868C46.0871 3.16071 38.4565 0 30.5 0Z" fill="#8FBFFA"/>
    <path fill-rule="evenodd" clip-rule="evenodd" d="M38.8615 1.18286C36.6238 0.535435 34.3182 0.151408 31.9915 0.0385742C37.1888 8.27706 40.3733 17.6235 41.2872 27.3214H19.7129C20.6429 17.5629 23.84 8.20715 29.0129 0.0385742C26.6847 0.151076 24.3777 0.535106 22.1386 1.18286C17.7863 9.27569 15.1307 18.1714 14.3343 27.3257H0.620046C0.462324 29.108 0.462324 30.9006 0.620046 32.6829H14.3343C15.13 41.8355 17.784 50.7296 22.1343 58.8214C24.3329 59.4557 26.6343 59.85 29.0086 59.9657C23.8092 51.7264 20.6232 42.3783 19.7086 32.6786H41.2872C40.3726 42.3783 37.1866 51.7264 31.9872 59.9657C34.3155 59.8518 36.6226 59.4664 38.8615 58.8172C43.2134 50.7257 45.8689 41.8315 46.6658 32.6786H60.3801C60.5376 30.8963 60.5376 29.1037 60.3801 27.3214H46.6658C45.8708 18.1674 43.2167 9.27168 38.8658 1.17857L38.8615 1.18286Z" fill="#2859C5"/>
</svg>
