<svg xmlns="http://www.w3.org/2000/svg" width="183" height="192" viewBox="0 0 183 192" fill="none">
    <g clip-path="url(#clip0_28_194)">
        <path d="M153.503 92.0762L127.556 69.9207V102.106L153.503 92.0762Z" fill="#0049B2"/>
        <path d="M55.4445 69.9207V92.0762H29.535L55.4445 69.9207Z" fill="#0049B2"/>
        <path d="M153.465 92.0763L181.119 68.0802C184.06 65.5273 182.968 60.7218 179.211 59.6986L149.243 51.5124C147.548 51.048 145.737 51.5369 144.502 52.7872L127.556 69.9277L153.465 92.0833V92.0763Z" fill="#6EA9FF"/>
        <path d="M29.535 92.0763L1.88103 68.0802C-1.06022 65.5273 0.031845 60.7218 3.78952 59.6986L33.7567 51.5124C35.4524 51.048 37.2632 51.5369 38.4983 52.7872L55.4445 69.9277L29.535 92.0833V92.0763Z" fill="#6EA9FF"/>
        <path d="M133.173 8.9439V92.0763H48.8467V23.1753C48.8467 20.9891 49.7155 18.8902 51.2577 17.3465L65.4754 3.11513C67.0211 1.56801 69.1145 0.701904 71.2986 0.701904H124.935C129.485 0.701904 133.173 4.39334 133.173 8.94739V8.9439Z" fill="white" stroke="#0049B2" stroke-miterlimit="10"/>
        <path d="M29.535 92.0764H153.503V170.885C153.503 173.833 151.113 176.222 148.172 176.222H34.8697C31.925 176.222 29.5385 173.829 29.5385 170.885V92.0764H29.535Z" fill="#1363DF"/>
        <path d="M120.34 137.568H115.347V126.469C115.347 113.013 104.451 102.106 91.008 102.106C77.5649 102.106 66.6686 113.013 66.6686 126.469V137.568H61.6793C59.8162 137.568 58.302 139.08 58.302 140.949V188.619C58.302 190.484 59.8162 192 61.6793 192H120.34C122.203 192 123.714 190.484 123.714 188.619V140.949C123.714 139.08 122.203 137.568 120.34 137.568ZM78.3987 137.568V124.947C78.3987 117.976 84.044 112.325 91.008 112.325C97.9721 112.325 103.617 117.976 103.617 124.947V137.568H78.3987Z" fill="#0049B2"/>
        <path d="M91.0081 171.884C94.9255 171.884 98.1012 168.705 98.1012 164.784C98.1012 160.863 94.9255 157.684 91.0081 157.684C87.0906 157.684 83.9149 160.863 83.9149 164.784C83.9149 168.705 87.0906 171.884 91.0081 171.884Z" fill="#6EA9FF"/>
        <path d="M93.3597 48.5019C94.6436 49.7871 95.8404 50.9815 97.0336 52.1864C97.4837 52.6369 98.007 52.8953 98.649 52.7976C99.3573 52.6928 99.8737 52.3016 100.1 51.6102C100.331 50.9082 100.188 50.2621 99.6608 49.7278C98.5618 48.6207 97.4593 47.5171 96.3532 46.4135C95.2228 45.282 94.0924 44.147 92.9584 43.0189C92.0373 42.1039 91.0255 42.0969 90.1219 43.0015C87.9133 45.2051 85.7047 47.4123 83.5032 49.6265C82.6902 50.4402 82.6484 51.5717 83.3811 52.2982C84.1347 53.0455 85.2058 52.9931 86.0502 52.155C87.2399 50.9711 88.4192 49.7767 89.6822 48.5054V63.5645C89.4729 63.575 89.2601 63.596 89.0507 63.596C83.7509 63.596 78.4511 63.5471 73.1512 63.6099C67.1466 63.6798 62.6912 59.7683 61.3025 55.0501C59.3557 48.4356 63.3471 41.5905 70.067 40.0225C70.4438 39.9352 70.5868 39.785 70.6636 39.4183C72.3592 31.323 79.0372 25.0647 87.219 23.8877C95.4321 22.7038 103.335 26.5349 107.466 33.7187C107.668 34.0715 107.874 34.2216 108.293 34.2356C114.988 34.4382 120.937 39.6942 122.022 46.3506C123.309 54.219 118.495 61.4551 110.738 63.2293C109.618 63.4842 108.443 63.5715 107.291 63.582C102.832 63.6204 98.3734 63.5995 93.9109 63.596C93.7365 63.596 93.562 63.575 93.3597 63.561V48.5019Z" fill="#6EA9FF"/>
    </g>
    <defs>
        <clipPath id="clip0_28_194">
            <rect width="182.601" height="192" fill="white" transform="translate(0.19931)"/>
        </clipPath>
    </defs>
</svg>
