<svg xmlns="http://www.w3.org/2000/svg" width="113" height="188" viewBox="0 0 113 188" fill="none">
    <g clip-path="url(#clip0_28_286)">
        <path d="M19.9992 78.9949L52.7125 71.5446C56.5924 70.661 60.458 73.0952 61.3409 76.9719L70.3918 116.713L23.6195 127.365L14.5687 87.624C13.685 83.7441 16.1193 79.8785 19.9959 78.9956L19.9992 78.9949Z" fill="#6EA9FF"/>
        <path d="M21.9094 88.7687L49.0498 82.584" stroke="white" stroke-width="1.89976" stroke-miterlimit="10" stroke-linecap="round"/>
        <path d="M23.1848 94.3722L41.5098 90.197" stroke="white" stroke-width="1.89976" stroke-miterlimit="10" stroke-linecap="round"/>
        <path d="M24.4603 99.9724L33.9666 97.8101" stroke="white" stroke-width="1.89976" stroke-miterlimit="10" stroke-linecap="round"/>
        <path fill-rule="evenodd" clip-rule="evenodd" d="M54.7362 118.523L62.5983 77.6082C63.3324 73.7918 66.6805 71.0249 70.5568 71.0249C71.0716 71.0249 71.5864 71.0747 72.0946 71.1711L105.041 77.5019C107.17 77.9105 109.01 79.1229 110.226 80.9198C111.442 82.7168 111.887 84.8758 111.478 87.0016L103.616 127.916L54.7329 118.523H54.7362Z" fill="#6EA9FF"/>
        <path d="M70.5601 71.9283C71.0119 71.9283 71.4702 71.9715 71.9286 72.0579L104.875 78.3887C108.785 79.1394 111.345 82.9193 110.595 86.8288L102.902 126.854L55.7958 117.799L63.4885 77.7743C64.1529 74.3232 67.1721 71.925 70.5601 71.925M70.5601 70.1147C66.2488 70.1147 62.5253 73.1938 61.7115 77.4321L54.0188 117.457L53.6767 119.234L55.4537 119.576L102.56 128.631L104.337 128.973L104.679 127.196L112.372 87.1709C112.827 84.806 112.332 82.4045 110.98 80.4116C109.628 78.4186 107.582 77.0701 105.217 76.615L72.2707 70.2841C71.7061 70.1745 71.1314 70.1214 70.5601 70.1214V70.1147Z" fill="white"/>
        <path d="M69.743 81.7769L97.0794 87.0316" stroke="white" stroke-width="1.89976" stroke-miterlimit="10" stroke-linecap="round"/>
        <path d="M68.6569 87.4202L87.1114 90.9676" stroke="white" stroke-width="1.89976" stroke-miterlimit="10" stroke-linecap="round"/>
        <path d="M67.574 93.0635L95.2824 98.3913" stroke="white" stroke-width="1.89976" stroke-miterlimit="10" stroke-linecap="round"/>
        <path fill-rule="evenodd" clip-rule="evenodd" d="M38.6998 99.4372C38.3743 97.6037 39.6033 95.8466 41.4368 95.5211L60.1836 92.1962C60.3796 92.163 60.5789 92.1431 60.7749 92.1431C62.4124 92.1431 63.8108 93.3156 64.0964 94.9298L68.0092 117.002L42.6126 121.506L38.6998 99.4339V99.4372Z" fill="#6EA9FF"/>
        <path d="M60.7748 93.05C61.9507 93.05 62.9936 93.8937 63.2062 95.0928L66.9629 116.274L43.3467 120.463L39.59 99.2812C39.3508 97.936 40.2476 96.6539 41.5929 96.4147L60.3397 93.0899C60.4859 93.0633 60.632 93.05 60.7748 93.05ZM60.7748 91.2397C60.5257 91.2397 60.2733 91.263 60.0242 91.3062L41.2773 94.6311C38.9522 95.0429 37.3977 97.2717 37.8096 99.5935L41.5663 120.775L41.8818 122.555L43.6622 122.24L67.2784 118.051L69.0588 117.736L68.7433 115.955L64.9866 94.7739C64.6245 92.7245 62.8508 91.2397 60.7748 91.2397Z" fill="white"/>
        <path fill-rule="evenodd" clip-rule="evenodd" d="M43.3466 120.459L48.2891 111.684C48.7575 110.854 49.7572 110.482 50.6507 110.807L57.626 113.331L61.4292 105.346C62.2463 103.632 64.7773 103.975 65.1095 105.845L66.9596 116.274L43.3433 120.463L43.3466 120.459Z" fill="white"/>
        <path d="M54.1118 106.619C55.9573 106.619 57.4533 105.122 57.4533 103.277C57.4533 101.432 55.9573 99.9355 54.1118 99.9355C52.2664 99.9355 50.7704 101.432 50.7704 103.277C50.7704 105.122 52.2664 106.619 54.1118 106.619Z" fill="white"/>
        <path d="M77.8975 53.5069C79.3889 53.4936 80.9168 53.3807 82.3683 53.0485C92.4226 50.75 98.6605 41.3832 96.9931 31.1927C95.5848 22.5766 87.8721 15.7674 79.1962 15.505C78.6515 15.4884 78.3857 15.2924 78.1233 14.8373C72.7657 5.53367 62.5253 0.571266 51.8797 2.10582C41.274 3.63374 32.618 11.7383 30.4192 22.2178C30.3195 22.6961 30.1335 22.8888 29.6452 23.0017C20.9361 25.0312 15.7611 33.8964 18.2855 42.4627C20.0858 48.5711 25.8653 53.6364 33.6444 53.5467L77.8975 53.5102V53.5069Z" fill="#6EA9FF"/>
        <path d="M67.8631 33.9264C68.916 32.8701 68.9725 31.4086 68.0192 30.4653C67.0427 29.4988 65.6542 29.5652 64.5615 30.6513C63.0203 32.1859 61.4923 33.7304 59.8515 35.3779V18.2619C59.8515 16.9433 58.782 15.8771 57.4666 15.8804C56.1513 15.8804 55.0884 16.9499 55.0884 18.2619V35.3812C53.4243 33.7171 51.8698 32.1693 50.3253 30.6115C49.744 30.0269 49.0664 29.6947 48.2327 29.8176C47.3126 29.9538 46.645 30.4587 46.3527 31.3555C46.0571 32.2656 46.2398 33.1026 46.924 33.7902C48.3489 35.2251 49.7805 36.6534 51.2088 38.0817C52.6736 39.5498 54.1384 41.0179 55.6099 42.4794C56.8056 43.6619 58.1143 43.6718 59.2868 42.4993L67.8664 33.9197L67.8631 33.9264Z" fill="white"/>
        <path d="M95.9201 106.509H73.3502C67.5308 106.509 62.8142 111.226 62.8142 117.045V117.234H23.0386C17.2192 117.234 12.5026 121.951 12.5026 127.77V167.994C12.5026 173.814 17.2192 178.53 23.0386 178.53H95.9234C101.743 178.53 106.459 173.814 106.459 167.994V117.045C106.459 111.226 101.743 106.509 95.9234 106.509H95.9201Z" fill="#0049B2"/>
        <path d="M14.9074 187.093C8.0716 187.093 2.508 181.53 2.508 174.694C2.508 167.858 8.0716 162.294 14.9074 162.294C21.7431 162.294 27.3067 167.858 27.3067 174.694C27.3067 181.53 21.7431 187.093 14.9074 187.093Z" fill="#6EA9FF"/>
        <path d="M14.9074 163.198C21.2549 163.198 26.4033 168.346 26.4033 174.694C26.4033 181.041 21.2549 186.19 14.9074 186.19C8.55994 186.19 3.41154 181.041 3.41154 174.694C3.41154 168.346 8.55994 163.198 14.9074 163.198ZM14.9074 161.388C7.57012 161.388 1.60129 167.357 1.60129 174.694C1.60129 182.031 7.57012 188 14.9074 188C22.2447 188 28.2136 182.031 28.2136 174.694C28.2136 167.357 22.2447 161.388 14.9074 161.388Z" fill="white"/>
        <path d="M14.9075 169.419V179.806" stroke="white" stroke-width="1.89976" stroke-miterlimit="10" stroke-linecap="round"/>
        <path d="M20.0991 174.611H9.71255" stroke="white" stroke-width="1.89976" stroke-miterlimit="10" stroke-linecap="round"/>
        <path d="M5.14212 64.6506L8.02855 74.6286" stroke="#6EA9FF" stroke-width="2.37383" stroke-miterlimit="10" stroke-linecap="round"/>
        <path d="M11.5726 68.198L1.5947 71.0811" stroke="#6EA9FF" stroke-width="2.37383" stroke-miterlimit="10" stroke-linecap="round"/>
        <path d="M95.1097 1.12939L92.5721 11.2003" stroke="#6EA9FF" stroke-width="2.37383" stroke-miterlimit="10" stroke-linecap="round"/>
        <path d="M98.8763 7.43699L88.8054 4.896" stroke="#6EA9FF" stroke-width="2.37383" stroke-miterlimit="10" stroke-linecap="round"/>
        <path d="M95.1065 162.099H66.7437C65.5532 162.099 64.588 163.064 64.588 164.254V165.815C64.588 167.006 65.5532 167.971 66.7437 167.971H95.1065C96.297 167.971 97.2622 167.006 97.2622 165.815V164.254C97.2622 163.064 96.297 162.099 95.1065 162.099Z" fill="#1363DF"/>
    </g>
    <defs>
        <clipPath id="clip0_28_286">
            <rect width="112.069" height="188" fill="white" transform="translate(0.465363)"/>
        </clipPath>
    </defs>
</svg>
