<svg width="27" height="26" viewBox="0 0 27 26" fill="none" xmlns="http://www.w3.org/2000/svg">
    <rect width="27" height="25.3883" rx="6" transform="matrix(1 0 0 -1 0 25.3882)" fill="white"/>
    <path fill-rule="evenodd" clip-rule="evenodd" d="M10.7065 6.26307C11.069 6.08999 11.4656 6.00006 11.8672 5.99986L17.6342 5.99986C18.2772 5.99986 18.8991 6.22967 19.3877 6.64782C19.8763 7.06597 20.1993 7.64494 20.2986 8.2803L20.9739 12.5985C21.0222 12.9063 21.0033 13.221 20.9183 13.5208C20.8334 13.8206 20.6846 14.0985 20.482 14.3353C20.2794 14.5721 20.028 14.7622 19.7449 14.8926C19.4619 15.0229 19.154 15.0904 18.8423 15.0904L15.3009 15.0904V17.6329C15.3014 18.0212 15.173 18.3987 14.9358 18.7061C14.6986 19.0135 14.366 19.2334 13.9903 19.3314C13.6146 19.4294 13.217 19.3999 12.8599 19.2475C12.5028 19.0951 12.2064 18.8285 12.0172 18.4895L9.77665 14.4873C9.64146 14.2457 9.57052 13.9735 9.57061 13.6966L9.57061 7.82616C9.57057 7.52055 9.65707 7.22118 9.8201 6.96269C9.98314 6.7042 10.216 6.49716 10.4919 6.36555L10.7076 6.26307H10.7065ZM7.0755 14.2889C6.93431 14.289 6.79448 14.2613 6.66401 14.2074C6.53353 14.1535 6.41496 14.0743 6.31507 13.9746C6.21519 13.8748 6.13595 13.7563 6.08189 13.6259C6.02783 13.4954 6 13.3556 6 13.2144L6 7.69995C6 7.41471 6.11331 7.14115 6.31501 6.93945C6.5167 6.73776 6.79026 6.62445 7.0755 6.62445H7.61055C7.7536 6.62445 7.89079 6.68127 7.99194 6.78242C8.09309 6.88357 8.14992 7.02076 8.14992 7.16381L8.14992 13.7506C8.14992 13.8936 8.09309 14.0308 7.99194 14.132C7.89079 14.2331 7.7536 14.2899 7.61055 14.2899H7.0755V14.2889Z" fill="#A1A1A1"/>
</svg>
