<svg xmlns="http://www.w3.org/2000/svg" width="99" height="78" viewBox="0 0 99 78">
  <defs>
    <!-- <linearGradient id="folder-green-a" x1="50%" x2="50%" y1="2.892%" y2="100%">
      <stop offset="0%" stop-color="#BDDB93"/>
      <stop offset="100%" stop-color="#7EC45A"/>
    </linearGradient> -->
    <linearGradient id="folder-green-a" x1="50%" x2="50%" y1="2.892%" y2="100%">
        <stop offset="0%" stop-color="#aed27b"></stop>
        <stop offset="100%" stop-color="#68b840"></stop>
    </linearGradient>
  </defs>
  <!-- <path fill="url(#folder-green-a)" fillRule="evenodd" d="M638.669178,104.684932 C641.426247,104.684932 643.663493,106.91749 643.663493,109.671491 L643.663493,140.305284 L643.663493,171.355863 C643.663493,172.9616 642.359436,174.264721 640.750801,174.264721 L547.912692,174.264721 C546.306358,174.264721 545,172.962381 545,171.355863 L545,140.305284 L545,109.671491 C545,109.560796 545.003606,109.450949 545.010708,109.342062 C545.003606,109.233251 545,109.123489 545,109.012885 L545,101.985105 C545,99.2309234 547.236317,97 549.994954,97 L572.892877,97 C574.896915,97 576.623884,98.1764588 577.419754,99.8747346 C577.421541,99.8610064 578.263176,101.332648 578.633429,101.826292 C579.056431,102.390265 579.020516,102.478345 579.760343,103.182973 C580.575974,103.9598 580.776343,104.042126 581.151796,104.227487 C581.303355,104.302311 581.609433,104.474789 582.094499,104.556078 C582.570567,104.635858 583.142944,104.670599 583.473539,104.684932 L638.669178,104.684932 Z" transform="translate(-545 -97)"/> -->
<rect fill="url(#folder-pink-a)" className="st0" x="4.34" y="15.05" width="88.46" height="57.42"></rect>
<rect fill="url(#folder-green-a)" className="st1" x="8.42" y="20.31" width="88.57" height="52.16"></rect>
    <path fill="url(#folder-green-a)" className="st2" d="M105.4,26.96v41.31c0,0-0.23,6.65-8.39,6.65H9.12c0,0-9.1,0.35-9.1-6.65V6.65c0,0-0.7-6.65,6.65-6.65 s12.95,0,12.95,0s5.34-0.05,9.8,1.75c5.04,2.39,9.1,4.67,9.1,4.67S44.71,9.8,49.26,9.8h34.89v5.25H4.34v52.51 c0,0-0.09,4.96,5.37,3.97c4.49-0.82,4.2-5.02,4.2-5.02V26.84L105.4,26.96z"></path>

</svg>


