<?xml version="1.0" encoding="UTF-8"?>
<svg xmlns="http://www.w3.org/2000/svg" xmlns:xlink="http://www.w3.org/1999/xlink" width="119.0551pt" height="136.063pt" viewBox="0 0 119.0551 136.063" version="1.1">
<g id="surface1">
<path style=" stroke:none;fill-rule:evenodd;fill:rgb(97.647095%,76.078796%,0%);fill-opacity:1;" d="M 87.875 18.933594 L 59.527344 2.566406 L 59.527344 35.300781 Z M 87.875 18.933594 "/>
<path style=" stroke:none;fill-rule:evenodd;fill:rgb(92.941284%,51.765442%,0%);fill-opacity:1;" d="M 116.21875 35.300781 L 87.875 18.933594 L 87.875 51.664062 Z M 116.21875 35.300781 "/>
<path style=" stroke:none;fill-rule:evenodd;fill:rgb(97.647095%,76.078796%,0%);fill-opacity:1;" d="M 116.21875 68.03125 L 116.21875 35.300781 L 87.875 51.664062 Z M 116.21875 68.03125 "/>
<path style=" stroke:none;fill-rule:evenodd;fill:rgb(88.235474%,21.960449%,5.882263%);fill-opacity:1;" d="M 31.183594 18.933594 L 31.183594 51.664062 L 59.527344 35.300781 Z M 31.183594 18.933594 "/>
<path style=" stroke:none;fill-rule:evenodd;fill:rgb(92.941284%,51.765442%,0%);fill-opacity:1;" d="M 59.527344 2.566406 L 31.183594 18.933594 L 59.527344 35.300781 Z M 59.527344 2.566406 "/>
<path style=" stroke:none;fill-rule:evenodd;fill:rgb(88.235474%,21.960449%,5.882263%);fill-opacity:1;" d="M 2.835938 35.300781 L 2.835938 68.03125 L 31.183594 51.664062 Z M 2.835938 35.300781 "/>
<path style=" stroke:none;fill-rule:evenodd;fill:rgb(65.098572%,12.548828%,8.627319%);fill-opacity:1;" d="M 31.183594 18.933594 L 2.835938 35.300781 L 31.183594 51.664062 Z M 31.183594 18.933594 "/>
<path style=" stroke:none;fill-rule:evenodd;fill:rgb(97.647095%,76.078796%,0%);fill-opacity:1;" d="M 59.527344 68.03125 L 31.183594 51.664062 L 31.183594 84.398438 Z M 59.527344 68.03125 "/>
<path style=" stroke:none;fill-rule:evenodd;fill:rgb(88.235474%,21.960449%,5.882263%);fill-opacity:1;" d="M 2.835938 68.03125 L 2.835938 100.761719 L 31.183594 84.398438 Z M 2.835938 68.03125 "/>
<path style=" stroke:none;fill-rule:evenodd;fill:rgb(92.941284%,51.765442%,0%);fill-opacity:1;" d="M 31.183594 51.664062 L 2.835938 68.03125 L 31.183594 84.398438 Z M 31.183594 51.664062 "/>
<path style=" stroke:none;fill-rule:evenodd;fill:rgb(65.098572%,12.548828%,8.627319%);fill-opacity:1;" d="M 31.183594 84.398438 L 2.835938 100.761719 L 31.183594 117.128906 Z M 31.183594 84.398438 "/>
<path style=" stroke:none;fill-rule:evenodd;fill:rgb(97.647095%,76.078796%,0%);fill-opacity:1;" d="M 59.527344 133.496094 L 87.875 117.128906 L 59.527344 100.761719 Z M 59.527344 133.496094 "/>
<path style=" stroke:none;fill-rule:evenodd;fill:rgb(92.941284%,51.765442%,0%);fill-opacity:1;" d="M 59.527344 100.761719 L 31.183594 117.128906 L 59.527344 133.496094 Z M 59.527344 100.761719 "/>
<path style=" stroke:none;fill-rule:evenodd;fill:rgb(92.941284%,51.765442%,0%);fill-opacity:1;" d="M 116.21875 68.03125 L 87.875 51.667969 L 87.875 84.398438 Z M 116.21875 68.03125 "/>
<path style=" stroke:none;fill-rule:evenodd;fill:rgb(88.235474%,21.960449%,5.882263%);fill-opacity:1;" d="M 116.21875 100.761719 L 116.21875 68.03125 L 87.875 84.398438 Z M 116.21875 100.761719 "/>
<path style=" stroke:none;fill-rule:evenodd;fill:rgb(65.098572%,12.548828%,8.627319%);fill-opacity:1;" d="M 87.875 117.128906 L 116.21875 100.761719 L 87.875 84.398438 Z M 87.875 117.128906 "/>
<path style=" stroke:none;fill-rule:evenodd;fill:rgb(88.235474%,21.960449%,5.882263%);fill-opacity:1;" d="M 87.875 51.667969 L 59.527344 68.03125 L 87.875 84.398438 Z M 87.875 51.667969 "/>
<path style=" stroke:none;fill-rule:evenodd;fill:rgb(88.235474%,21.960449%,5.882263%);fill-opacity:1;" d="M 87.875 84.398438 L 59.527344 100.761719 L 87.875 117.128906 Z M 87.875 84.398438 "/>
</g>
</svg>
